<?xml version="1.0" ?>
<svg xmlns="http://www.w3.org/2000/svg" width="1024px" height="1024px" viewBox="0 0 1024 1024">
  <rect x="0" y="0" width="1024" height="1024" fill="none"/>
  <path d="M 990.13,554.36 L 1023.01,567.40 L 1005.31,656.37 L 969.94,655.84 L 937.52,734.10 L 962.91,758.74 L 912.51,834.16 L 880.04,820.14 L 820.14,880.04 L 834.16,912.51 L 758.74,962.91 L 734.10,937.52 L 655.84,969.94 L 656.37,1005.31 L 567.40,1023.01 L 554.36,990.13 L 469.64,990.13 L 456.60,1023.01 L 367.63,1005.31 L 368.16,969.94 L 289.90,937.52 L 265.26,962.91 L 189.84,912.51 L 203.86,880.04 L 143.96,820.14 L 111.49,834.16 L 61.09,758.74 L 86.48,734.10 L 54.06,655.84 L 18.69,656.37 L 0.99,567.40 L 33.87,554.36 L 33.87,469.64 L 0.99,456.60 L 18.69,367.63 L 54.06,368.16 L 86.48,289.90 L 61.09,265.26 L 111.49,189.84 L 143.96,203.86 L 203.86,143.96 L 189.84,111.49 L 265.26,61.09 L 289.90,86.48 L 368.16,54.06 L 367.63,18.69 L 456.60,0.99 L 469.64,33.87 L 554.36,33.87 L 567.40,0.99 L 656.37,18.69 L 655.84,54.06 L 734.10,86.48 L 758.74,61.09 L 834.16,111.49 L 820.14,143.96 L 880.04,203.86 L 912.51,189.84 L 962.91,265.26 L 937.52,289.90 L 969.94,368.16 L 1005.31,367.63 L 1023.01,456.60 L 990.13,469.64 Z L 872.00,512.00 L 871.78,499.44 L 871.12,486.89 L 870.03,474.37 L 868.50,461.90 L 866.53,449.49 L 864.13,437.15 L 861.31,424.91 L 858.05,412.77 L 854.38,400.75 L 850.29,388.87 L 845.79,377.14 L 840.88,365.57 L 835.57,354.19 L 829.86,342.99 L 823.77,332.00 L 817.30,321.23 L 810.45,310.69 L 803.25,300.40 L 795.68,290.36 L 787.78,280.60 L 779.53,271.11 L 770.96,261.92 L 762.08,253.04 L 752.89,244.47 L 743.40,236.22 L 733.64,228.32 L 723.60,220.75 L 713.31,213.55 L 702.77,206.70 L 692.00,200.23 L 681.01,194.14 L 669.81,188.43 L 658.43,183.12 L 646.86,178.21 L 635.13,173.71 L 623.25,169.62 L 611.23,165.95 L 599.09,162.69 L 586.85,159.87 L 574.51,157.47 L 562.10,155.50 L 549.63,153.97 L 537.11,152.88 L 524.56,152.22 L 512.00,152.00 L 499.44,152.22 L 486.89,152.88 L 474.37,153.97 L 461.90,155.50 L 449.49,157.47 L 437.15,159.87 L 424.91,162.69 L 412.77,165.95 L 400.75,169.62 L 388.87,173.71 L 377.14,178.21 L 365.57,183.12 L 354.19,188.43 L 342.99,194.14 L 332.00,200.23 L 321.23,206.70 L 310.69,213.55 L 300.40,220.75 L 290.36,228.32 L 280.60,236.22 L 271.11,244.47 L 261.92,253.04 L 253.04,261.92 L 244.47,271.11 L 236.22,280.60 L 228.32,290.36 L 220.75,300.40 L 213.55,310.69 L 206.70,321.23 L 200.23,332.00 L 194.14,342.99 L 188.43,354.19 L 183.12,365.57 L 178.21,377.14 L 173.71,388.87 L 169.62,400.75 L 165.95,412.77 L 162.69,424.91 L 159.87,437.15 L 157.47,449.49 L 155.50,461.90 L 153.97,474.37 L 152.88,486.89 L 152.22,499.44 L 152.00,512.00 L 152.22,524.56 L 152.88,537.11 L 153.97,549.63 L 155.50,562.10 L 157.47,574.51 L 159.87,586.85 L 162.69,599.09 L 165.95,611.23 L 169.62,623.25 L 173.71,635.13 L 178.21,646.86 L 183.12,658.43 L 188.43,669.81 L 194.14,681.01 L 200.23,692.00 L 206.70,702.77 L 213.55,713.31 L 220.75,723.60 L 228.32,733.64 L 236.22,743.40 L 244.47,752.89 L 253.04,762.08 L 261.92,770.96 L 271.11,779.53 L 280.60,787.78 L 290.36,795.68 L 300.40,803.25 L 310.69,810.45 L 321.23,817.30 L 332.00,823.77 L 342.99,829.86 L 354.19,835.57 L 365.57,840.88 L 377.14,845.79 L 388.87,850.29 L 400.75,854.38 L 412.77,858.05 L 424.91,861.31 L 437.15,864.13 L 449.49,866.53 L 461.90,868.50 L 474.37,870.03 L 486.89,871.12 L 499.44,871.78 L 512.00,872.00 L 524.56,871.78 L 537.11,871.12 L 549.63,870.03 L 562.10,868.50 L 574.51,866.53 L 586.85,864.13 L 599.09,861.31 L 611.23,858.05 L 623.25,854.38 L 635.13,850.29 L 646.86,845.79 L 658.43,840.88 L 669.81,835.57 L 681.01,829.86 L 692.00,823.77 L 702.77,817.30 L 713.31,810.45 L 723.60,803.25 L 733.64,795.68 L 743.40,787.78 L 752.89,779.53 L 762.08,770.96 L 770.96,762.08 L 779.53,752.89 L 787.78,743.40 L 795.68,733.64 L 803.25,723.60 L 810.45,713.31 L 817.30,702.77 L 823.77,692.00 L 829.86,681.01 L 835.57,669.81 L 840.88,658.43 L 845.79,646.86 L 850.29,635.13 L 854.38,623.25 L 858.05,611.23 L 861.31,599.09 L 864.13,586.85 L 866.53,574.51 L 868.50,562.10 L 870.03,549.63 L 871.12,537.11 L 871.78,524.56 L 872.00,512.00 Z" fill="#0F172A" fill-rule="evenodd"/>
  <path id="textCircle" d="M 178.0,512.0 a 334,334 0 1,1 668,0 a 334,334 0 1,1 -668,0" fill="none" stroke="none"/>
  <text fill="#0F172A" font-family="Inter, ui-sans-serif, system-ui, -apple-system, Segoe UI, Roboto, Ubuntu, Cantarell, Noto Sans" font-size="48" font-weight="700" letter-spacing="2">
    <textPath href="#textCircle" startOffset="50%" text-anchor="middle">CONFIGURATION LANGUAGE</textPath>
  </text>
  <g transform="translate(512.0,512.0) rotate(-35)">
    <path d="M 0 -280.44 C 206.64 -250.92 280.44 -29.52 103.32 162.36 C 14.76 280.44 -14.76 280.44 -103.32 162.36 C -280.44 -29.52 -206.64 -250.92 0 -280.44 Z" fill="#34D399"/>
    <path d="M 0 -218.7432 C 161.17919999999998 -195.7176 218.7432 -23.0256 80.58959999999999 126.64080000000001 C 11.5128 218.7432 -11.5128 218.7432 -80.58959999999999 126.64080000000001 C -218.7432 -23.0256 -161.17919999999998 -195.7176 0 -218.7432 Z" fill="#A7F3D0"/>
    <circle cx="0" cy="88.56" r="64.94" fill="#7C3AED"/>
    <ellipse cx="-23.62" cy="-103.32" rx="29.52" ry="14.76" fill="white" opacity="0.6"/>
  </g>
</svg>
